<mxfile host="65bd71144e">
    <diagram id="bo4hUiDbsONVpVjLVUrg" name="ページ1">
        <mxGraphModel dx="382" dy="500" grid="1" gridSize="10" guides="1" tooltips="1" connect="1" arrows="1" fold="1" page="1" pageScale="1" pageWidth="827" pageHeight="1169" math="0" shadow="0">
            <root>
                <mxCell id="0"/>
                <mxCell id="1" parent="0"/>
                <mxCell id="6" style="edgeStyle=none;html=1;endArrow=none;endFill=0;" edge="1" parent="1" source="2" target="4">
                    <mxGeometry relative="1" as="geometry"/>
                </mxCell>
                <mxCell id="2" value="Client" style="shadow=0;dashed=0;html=1;strokeColor=none;fillColor=#4495D1;labelPosition=center;verticalLabelPosition=bottom;verticalAlign=top;align=center;outlineConnect=0;shape=mxgraph.veeam.2d.virtual_machine;" vertex="1" parent="1">
                    <mxGeometry x="280" y="640" width="40.73" height="40" as="geometry"/>
                </mxCell>
                <mxCell id="3" value="Server" style="shadow=0;dashed=0;html=1;strokeColor=none;fillColor=#4495D1;labelPosition=center;verticalLabelPosition=bottom;verticalAlign=top;align=center;outlineConnect=0;shape=mxgraph.veeam.2d.virtual_machine;" vertex="1" parent="1">
                    <mxGeometry x="519" y="640" width="40.73" height="40" as="geometry"/>
                </mxCell>
                <mxCell id="4" value="P4 Switch" style="verticalLabelPosition=bottom;sketch=0;html=1;fillColor=#A153A0;strokeColor=#ffffff;verticalAlign=top;align=center;points=[[0,0.5,0],[0.125,0.25,0],[0.25,0,0],[0.5,0,0],[0.75,0,0],[0.875,0.25,0],[1,0.5,0],[0.875,0.75,0],[0.75,1,0],[0.5,1,0],[0.125,0.75,0]];pointerEvents=1;shape=mxgraph.cisco_safe.compositeIcon;bgIcon=mxgraph.cisco_safe.design.blank_device;resIcon=mxgraph.cisco_safe.design.access_switch_2;" vertex="1" parent="1">
                    <mxGeometry x="395" y="637" width="50" height="45" as="geometry"/>
                </mxCell>
                <mxCell id="7" style="edgeStyle=none;html=1;endArrow=none;endFill=0;exitX=1;exitY=0.5;exitDx=0;exitDy=0;exitPerimeter=0;" edge="1" parent="1" source="4" target="3">
                    <mxGeometry relative="1" as="geometry">
                        <mxPoint x="330.73" y="669.9148869477996" as="sourcePoint"/>
                        <mxPoint x="405" y="669.6044844736072" as="targetPoint"/>
                    </mxGeometry>
                </mxCell>
                <mxCell id="8" value="192.168.0.20&lt;br&gt;20:20:20:20:20:20" style="text;html=1;align=center;verticalAlign=middle;resizable=0;points=[];autosize=1;strokeColor=none;fillColor=none;" vertex="1" parent="1">
                    <mxGeometry x="240.36" y="605" width="120" height="40" as="geometry"/>
                </mxCell>
                <mxCell id="9" value="192.168.0.10&lt;br&gt;10:10:10:10:10:10" style="text;html=1;align=center;verticalAlign=middle;resizable=0;points=[];autosize=1;strokeColor=none;fillColor=none;" vertex="1" parent="1">
                    <mxGeometry x="479.36" y="605" width="120" height="40" as="geometry"/>
                </mxCell>
            </root>
        </mxGraphModel>
    </diagram>
</mxfile>